<mxfile host="" modified="2020-11-01T19:10:56.648Z" agent="5.0 (Windows NT 10.0; Win64; x64) AppleWebKit/537.36 (KHTML, like Gecko) Code/1.45.1 Chrome/78.0.3904.130 Electron/7.2.4 Safari/537.36" etag="pLDAThQlTeEqYAQRjB35" version="13.1.3" pages="5">
    <diagram id="6hGFLwfOUW9BJ-s0fimq" name="ER">
        <mxGraphModel dx="1296" dy="475" grid="1" gridSize="10" guides="1" tooltips="1" connect="1" arrows="1" fold="1" page="1" pageScale="1" pageWidth="827" pageHeight="1169" math="0" shadow="0">
            <root>
                <mxCell id="0"/>
                <mxCell id="1" parent="0"/>
                <mxCell id="20" value="" style="edgeStyle=orthogonalEdgeStyle;rounded=0;orthogonalLoop=1;jettySize=auto;html=1;" parent="1" source="2" target="18" edge="1">
                    <mxGeometry relative="1" as="geometry"/>
                </mxCell>
                <mxCell id="2" value="Cuentas" style="html=1;" parent="1" vertex="1">
                    <mxGeometry x="425" y="450" width="110" height="50" as="geometry"/>
                </mxCell>
                <mxCell id="6" value="" style="edgeStyle=orthogonalEdgeStyle;rounded=0;orthogonalLoop=1;jettySize=auto;html=1;" parent="1" source="3" target="5" edge="1">
                    <mxGeometry relative="1" as="geometry"/>
                </mxCell>
                <mxCell id="3" value="Asiento" style="html=1;" parent="1" vertex="1">
                    <mxGeometry x="60" y="170" width="110" height="50" as="geometry"/>
                </mxCell>
                <mxCell id="11" value="" style="edgeStyle=orthogonalEdgeStyle;rounded=0;orthogonalLoop=1;jettySize=auto;html=1;" parent="1" source="4" target="10" edge="1">
                    <mxGeometry relative="1" as="geometry"/>
                </mxCell>
                <mxCell id="15" value="" style="edgeStyle=orthogonalEdgeStyle;rounded=0;orthogonalLoop=1;jettySize=auto;html=1;" parent="1" source="4" target="14" edge="1">
                    <mxGeometry relative="1" as="geometry"/>
                </mxCell>
                <mxCell id="4" value="Transaccion" style="html=1;" parent="1" vertex="1">
                    <mxGeometry x="250" y="305" width="110" height="50" as="geometry"/>
                </mxCell>
                <mxCell id="9" style="edgeStyle=orthogonalEdgeStyle;rounded=0;orthogonalLoop=1;jettySize=auto;html=1;exitX=1;exitY=0.5;exitDx=0;exitDy=0;" parent="1" source="5" target="4" edge="1">
                    <mxGeometry relative="1" as="geometry"/>
                </mxCell>
                <mxCell id="5" value="Tiene" style="rhombus;whiteSpace=wrap;html=1;" parent="1" vertex="1">
                    <mxGeometry x="75" y="290" width="80" height="80" as="geometry"/>
                </mxCell>
                <mxCell id="13" value="" style="edgeStyle=orthogonalEdgeStyle;rounded=0;orthogonalLoop=1;jettySize=auto;html=1;entryX=0.5;entryY=0;entryDx=0;entryDy=0;" parent="1" source="10" target="2" edge="1">
                    <mxGeometry relative="1" as="geometry">
                        <mxPoint x="480" y="450" as="targetPoint"/>
                    </mxGeometry>
                </mxCell>
                <mxCell id="10" value="Tiene" style="rhombus;whiteSpace=wrap;html=1;" parent="1" vertex="1">
                    <mxGeometry x="440" y="290" width="80" height="80" as="geometry"/>
                </mxCell>
                <mxCell id="17" value="" style="edgeStyle=orthogonalEdgeStyle;rounded=0;orthogonalLoop=1;jettySize=auto;html=1;" parent="1" source="14" target="16" edge="1">
                    <mxGeometry relative="1" as="geometry"/>
                </mxCell>
                <mxCell id="14" value="Sobre" style="rhombus;whiteSpace=wrap;html=1;" parent="1" vertex="1">
                    <mxGeometry x="265" y="430" width="80" height="80" as="geometry"/>
                </mxCell>
                <mxCell id="16" value="Tipo Cuenta" style="rounded=0;whiteSpace=wrap;html=1;" parent="1" vertex="1">
                    <mxGeometry x="245" y="570" width="120" height="60" as="geometry"/>
                </mxCell>
                <mxCell id="19" value="" style="edgeStyle=orthogonalEdgeStyle;rounded=0;orthogonalLoop=1;jettySize=auto;html=1;" parent="1" source="18" target="16" edge="1">
                    <mxGeometry relative="1" as="geometry"/>
                </mxCell>
                <mxCell id="18" value="Pertenece" style="rhombus;whiteSpace=wrap;html=1;" parent="1" vertex="1">
                    <mxGeometry x="440" y="560" width="80" height="80" as="geometry"/>
                </mxCell>
            </root>
        </mxGraphModel>
    </diagram>
    <diagram id="_91VkdKWvWOp3Udzmnr9" name="Diagrama de clases">
        &#xa;        
        <mxGraphModel dx="497" dy="358" grid="1" gridSize="10" guides="1" tooltips="1" connect="1" arrows="1" fold="1" page="1" pageScale="1" pageWidth="827" pageHeight="1169" math="0" shadow="0">
            &#xa;            
            <root>
                &#xa;                
                <mxCell id="OX5kSm0OX-Nh6_DM0Z43-0"/>
                &#xa;                
                <mxCell id="OX5kSm0OX-Nh6_DM0Z43-1" parent="OX5kSm0OX-Nh6_DM0Z43-0"/>
                &#xa;                
                <mxCell id="Gl2oBqohSsj6hxCs2OFg-5" style="edgeStyle=orthogonalEdgeStyle;rounded=0;orthogonalLoop=1;jettySize=auto;html=1;exitX=0;exitY=0.5;exitDx=0;exitDy=0;entryX=0;entryY=0.5;entryDx=0;entryDy=0;" parent="OX5kSm0OX-Nh6_DM0Z43-1" source="Gl2oBqohSsj6hxCs2OFg-4" target="V8VolwRSf5XyQ9FChv2U-1" edge="1">
                    &#xa;                    
                    <mxGeometry relative="1" as="geometry">
                        &#xa;                        
                        <mxPoint x="150" y="599" as="targetPoint"/>
                        &#xa;                    
                    </mxGeometry>
                    &#xa;                
                </mxCell>
                &#xa;                
                <mxCell id="Gl2oBqohSsj6hxCs2OFg-11" style="edgeStyle=orthogonalEdgeStyle;rounded=0;orthogonalLoop=1;jettySize=auto;html=1;exitX=0;exitY=0.5;exitDx=0;exitDy=0;entryX=1;entryY=0.5;entryDx=0;entryDy=0;" parent="OX5kSm0OX-Nh6_DM0Z43-1" source="Gl2oBqohSsj6hxCs2OFg-10" target="Gl2oBqohSsj6hxCs2OFg-1" edge="1">
                    &#xa;                    
                    <mxGeometry relative="1" as="geometry"/>
                    &#xa;                
                </mxCell>
                &#xa;                
                <mxCell id="Gl2oBqohSsj6hxCs2OFg-0" value="Accounts" style="swimlane;fontStyle=0;childLayout=stackLayout;horizontal=1;startSize=26;fillColor=none;horizontalStack=0;resizeParent=1;resizeParentMax=0;resizeLast=0;collapsible=1;marginBottom=0;" parent="OX5kSm0OX-Nh6_DM0Z43-1" vertex="1">
                    &#xa;                    
                    <mxGeometry x="30" y="280" width="180" height="156" as="geometry"/>
                    &#xa;                
                </mxCell>
                &#xa;                
                <mxCell id="Gl2oBqohSsj6hxCs2OFg-1" value="+ _id: number" style="text;strokeColor=none;fillColor=none;align=left;verticalAlign=top;spacingLeft=4;spacingRight=4;overflow=hidden;rotatable=0;points=[[0,0.5],[1,0.5]];portConstraint=eastwest;" parent="Gl2oBqohSsj6hxCs2OFg-0" vertex="1">
                    &#xa;                    
                    <mxGeometry y="26" width="180" height="26" as="geometry"/>
                    &#xa;                
                </mxCell>
                &#xa;                
                <mxCell id="PHA15Wtx1yDgYeauEyLV-1" value="+ parent_id: number" style="text;strokeColor=none;fillColor=none;align=left;verticalAlign=top;spacingLeft=4;spacingRight=4;overflow=hidden;rotatable=0;points=[[0,0.5],[1,0.5]];portConstraint=eastwest;" parent="Gl2oBqohSsj6hxCs2OFg-0" vertex="1">
                    &#xa;                    
                    <mxGeometry y="52" width="180" height="26" as="geometry"/>
                    &#xa;                
                </mxCell>
                &#xa;                
                <mxCell id="Gl2oBqohSsj6hxCs2OFg-2" value="+ name: string" style="text;strokeColor=none;fillColor=none;align=left;verticalAlign=top;spacingLeft=4;spacingRight=4;overflow=hidden;rotatable=0;points=[[0,0.5],[1,0.5]];portConstraint=eastwest;" parent="Gl2oBqohSsj6hxCs2OFg-0" vertex="1">
                    &#xa;                    
                    <mxGeometry y="78" width="180" height="26" as="geometry"/>
                    &#xa;                
                </mxCell>
                &#xa;                
                <mxCell id="Gl2oBqohSsj6hxCs2OFg-4" value="+ type_id:Â  number" style="text;strokeColor=none;fillColor=none;align=left;verticalAlign=top;spacingLeft=4;spacingRight=4;overflow=hidden;rotatable=0;points=[[0,0.5],[1,0.5]];portConstraint=eastwest;" parent="Gl2oBqohSsj6hxCs2OFg-0" vertex="1">
                    &#xa;                    
                    <mxGeometry y="104" width="180" height="26" as="geometry"/>
                    &#xa;                
                </mxCell>
                &#xa;                
                <mxCell id="Gl2oBqohSsj6hxCs2OFg-3" value="+ current_amount: float" style="text;strokeColor=none;fillColor=none;align=left;verticalAlign=top;spacingLeft=4;spacingRight=4;overflow=hidden;rotatable=0;points=[[0,0.5],[1,0.5]];portConstraint=eastwest;" parent="Gl2oBqohSsj6hxCs2OFg-0" vertex="1">
                    &#xa;                    
                    <mxGeometry y="130" width="180" height="26" as="geometry"/>
                    &#xa;                
                </mxCell>
                &#xa;                
                <mxCell id="PHA15Wtx1yDgYeauEyLV-2" style="edgeStyle=orthogonalEdgeStyle;rounded=0;orthogonalLoop=1;jettySize=auto;html=1;exitX=0;exitY=0.5;exitDx=0;exitDy=0;entryX=0;entryY=0.5;entryDx=0;entryDy=0;" parent="Gl2oBqohSsj6hxCs2OFg-0" source="PHA15Wtx1yDgYeauEyLV-1" target="Gl2oBqohSsj6hxCs2OFg-1" edge="1">
                    &#xa;                    
                    <mxGeometry relative="1" as="geometry">
                        &#xa;                        
                        <mxPoint x="-20" y="40" as="targetPoint"/>
                        &#xa;                        
                        <Array as="points">
                            &#xa;                            
                            <mxPoint x="-20" y="65"/>
                            &#xa;                            
                            <mxPoint x="-20" y="39"/>
                            &#xa;                        
                        </Array>
                        &#xa;                    
                    </mxGeometry>
                    &#xa;                
                </mxCell>
                &#xa;                
                <mxCell id="Gl2oBqohSsj6hxCs2OFg-6" value="Transacctions" style="swimlane;fontStyle=0;childLayout=stackLayout;horizontal=1;startSize=26;fillColor=none;horizontalStack=0;resizeParent=1;resizeParentMax=0;resizeLast=0;collapsible=1;marginBottom=0;" parent="OX5kSm0OX-Nh6_DM0Z43-1" vertex="1">
                    &#xa;                    
                    <mxGeometry x="290" y="210" width="160" height="156" as="geometry"/>
                    &#xa;                
                </mxCell>
                &#xa;                
                <mxCell id="Gl2oBqohSsj6hxCs2OFg-7" value="+ _id: ObjectId" style="text;strokeColor=none;fillColor=none;align=left;verticalAlign=top;spacingLeft=4;spacingRight=4;overflow=hidden;rotatable=0;points=[[0,0.5],[1,0.5]];portConstraint=eastwest;" parent="Gl2oBqohSsj6hxCs2OFg-6" vertex="1">
                    &#xa;                    
                    <mxGeometry y="26" width="160" height="26" as="geometry"/>
                    &#xa;                
                </mxCell>
                &#xa;                
                <mxCell id="Gl2oBqohSsj6hxCs2OFg-10" value="+ account_id: number" style="text;strokeColor=none;fillColor=none;align=left;verticalAlign=top;spacingLeft=4;spacingRight=4;overflow=hidden;rotatable=0;points=[[0,0.5],[1,0.5]];portConstraint=eastwest;" parent="Gl2oBqohSsj6hxCs2OFg-6" vertex="1">
                    &#xa;                    
                    <mxGeometry y="52" width="160" height="26" as="geometry"/>
                    &#xa;                
                </mxCell>
                &#xa;                
                <mxCell id="Gl2oBqohSsj6hxCs2OFg-16" value="+ accounting_seat_id: number" style="text;strokeColor=none;fillColor=none;align=left;verticalAlign=top;spacingLeft=4;spacingRight=4;overflow=hidden;rotatable=0;points=[[0,0.5],[1,0.5]];portConstraint=eastwest;" parent="Gl2oBqohSsj6hxCs2OFg-6" vertex="1">
                    &#xa;                    
                    <mxGeometry y="78" width="160" height="26" as="geometry"/>
                    &#xa;                
                </mxCell>
                &#xa;                
                <mxCell id="Gl2oBqohSsj6hxCs2OFg-8" value="+ amount: float" style="text;strokeColor=none;fillColor=none;align=left;verticalAlign=top;spacingLeft=4;spacingRight=4;overflow=hidden;rotatable=0;points=[[0,0.5],[1,0.5]];portConstraint=eastwest;" parent="Gl2oBqohSsj6hxCs2OFg-6" vertex="1">
                    &#xa;                    
                    <mxGeometry y="104" width="160" height="26" as="geometry"/>
                    &#xa;                
                </mxCell>
                &#xa;                
                <mxCell id="Gl2oBqohSsj6hxCs2OFg-9" value="+ type: ENUM(haber,deber)" style="text;strokeColor=none;fillColor=none;align=left;verticalAlign=top;spacingLeft=4;spacingRight=4;overflow=hidden;rotatable=0;points=[[0,0.5],[1,0.5]];portConstraint=eastwest;" parent="Gl2oBqohSsj6hxCs2OFg-6" vertex="1">
                    &#xa;                    
                    <mxGeometry y="130" width="160" height="26" as="geometry"/>
                    &#xa;                
                </mxCell>
                &#xa;                
                <mxCell id="Gl2oBqohSsj6hxCs2OFg-17" style="edgeStyle=orthogonalEdgeStyle;rounded=0;orthogonalLoop=1;jettySize=auto;html=1;exitX=1;exitY=0.5;exitDx=0;exitDy=0;entryX=0;entryY=0.5;entryDx=0;entryDy=0;" parent="OX5kSm0OX-Nh6_DM0Z43-1" source="Gl2oBqohSsj6hxCs2OFg-16" target="Gl2oBqohSsj6hxCs2OFg-13" edge="1">
                    &#xa;                    
                    <mxGeometry relative="1" as="geometry"/>
                    &#xa;                
                </mxCell>
                &#xa;                
                <mxCell id="Gl2oBqohSsj6hxCs2OFg-18" value="La trasacciones de un asiento deben ser iguales las sumatorias en el haber y deber (al restar debe ser 0)" style="shape=note;strokeWidth=2;fontSize=14;size=20;whiteSpace=wrap;html=1;fillColor=#fff2cc;strokeColor=#d6b656;fontColor=#666600;" parent="OX5kSm0OX-Nh6_DM0Z43-1" vertex="1">
                    &#xa;                    
                    <mxGeometry x="500" y="170" width="260" height="70" as="geometry"/>
                    &#xa;                
                </mxCell>
                &#xa;                
                <mxCell id="Gl2oBqohSsj6hxCs2OFg-12" value="AccountingSeat" style="swimlane;fontStyle=0;childLayout=stackLayout;horizontal=1;startSize=26;fillColor=none;horizontalStack=0;resizeParent=1;resizeParentMax=0;resizeLast=0;collapsible=1;marginBottom=0;" parent="OX5kSm0OX-Nh6_DM0Z43-1" vertex="1">
                    &#xa;                    
                    <mxGeometry x="530" y="262" width="140" height="104" as="geometry"/>
                    &#xa;                
                </mxCell>
                &#xa;                
                <mxCell id="Gl2oBqohSsj6hxCs2OFg-13" value="+ _id: ObjectId" style="text;strokeColor=none;fillColor=none;align=left;verticalAlign=top;spacingLeft=4;spacingRight=4;overflow=hidden;rotatable=0;points=[[0,0.5],[1,0.5]];portConstraint=eastwest;" parent="Gl2oBqohSsj6hxCs2OFg-12" vertex="1">
                    &#xa;                    
                    <mxGeometry y="26" width="140" height="26" as="geometry"/>
                    &#xa;                
                </mxCell>
                &#xa;                
                <mxCell id="Gl2oBqohSsj6hxCs2OFg-14" value="+ date: datetime" style="text;strokeColor=none;fillColor=none;align=left;verticalAlign=top;spacingLeft=4;spacingRight=4;overflow=hidden;rotatable=0;points=[[0,0.5],[1,0.5]];portConstraint=eastwest;" parent="Gl2oBqohSsj6hxCs2OFg-12" vertex="1">
                    &#xa;                    
                    <mxGeometry y="52" width="140" height="26" as="geometry"/>
                    &#xa;                
                </mxCell>
                &#xa;                
                <mxCell id="Gl2oBqohSsj6hxCs2OFg-15" value="+ description: string" style="text;strokeColor=none;fillColor=none;align=left;verticalAlign=top;spacingLeft=4;spacingRight=4;overflow=hidden;rotatable=0;points=[[0,0.5],[1,0.5]];portConstraint=eastwest;" parent="Gl2oBqohSsj6hxCs2OFg-12" vertex="1">
                    &#xa;                    
                    <mxGeometry y="78" width="140" height="26" as="geometry"/>
                    &#xa;                
                </mxCell>
                &#xa;                
                <mxCell id="Gl2oBqohSsj6hxCs2OFg-23" value="SnapshopLogs" style="swimlane;fontStyle=0;childLayout=stackLayout;horizontal=1;startSize=26;fillColor=none;horizontalStack=0;resizeParent=1;resizeParentMax=0;resizeLast=0;collapsible=1;marginBottom=0;" parent="OX5kSm0OX-Nh6_DM0Z43-1" vertex="1">
                    &#xa;                    
                    <mxGeometry x="300" y="420" width="140" height="130" as="geometry"/>
                    &#xa;                
                </mxCell>
                &#xa;                
                <mxCell id="Gl2oBqohSsj6hxCs2OFg-24" value="+ _id: ObjectId" style="text;strokeColor=none;fillColor=none;align=left;verticalAlign=top;spacingLeft=4;spacingRight=4;overflow=hidden;rotatable=0;points=[[0,0.5],[1,0.5]];portConstraint=eastwest;" parent="Gl2oBqohSsj6hxCs2OFg-23" vertex="1">
                    &#xa;                    
                    <mxGeometry y="26" width="140" height="26" as="geometry"/>
                    &#xa;                
                </mxCell>
                &#xa;                
                <mxCell id="Gl2oBqohSsj6hxCs2OFg-25" value="+ account_id: number" style="text;strokeColor=none;fillColor=none;align=left;verticalAlign=top;spacingLeft=4;spacingRight=4;overflow=hidden;rotatable=0;points=[[0,0.5],[1,0.5]];portConstraint=eastwest;" parent="Gl2oBqohSsj6hxCs2OFg-23" vertex="1">
                    &#xa;                    
                    <mxGeometry y="52" width="140" height="26" as="geometry"/>
                    &#xa;                
                </mxCell>
                &#xa;                
                <mxCell id="Gl2oBqohSsj6hxCs2OFg-29" value="+ snapshop_id: number" style="text;strokeColor=none;fillColor=none;align=left;verticalAlign=top;spacingLeft=4;spacingRight=4;overflow=hidden;rotatable=0;points=[[0,0.5],[1,0.5]];portConstraint=eastwest;" parent="Gl2oBqohSsj6hxCs2OFg-23" vertex="1">
                    &#xa;                    
                    <mxGeometry y="78" width="140" height="26" as="geometry"/>
                    &#xa;                
                </mxCell>
                &#xa;                
                <mxCell id="Gl2oBqohSsj6hxCs2OFg-26" value="+ amount: float" style="text;strokeColor=none;fillColor=none;align=left;verticalAlign=top;spacingLeft=4;spacingRight=4;overflow=hidden;rotatable=0;points=[[0,0.5],[1,0.5]];portConstraint=eastwest;" parent="Gl2oBqohSsj6hxCs2OFg-23" vertex="1">
                    &#xa;                    
                    <mxGeometry y="104" width="140" height="26" as="geometry"/>
                    &#xa;                
                </mxCell>
                &#xa;                
                <mxCell id="Gl2oBqohSsj6hxCs2OFg-27" style="edgeStyle=orthogonalEdgeStyle;rounded=0;orthogonalLoop=1;jettySize=auto;html=1;exitX=0;exitY=0.5;exitDx=0;exitDy=0;entryX=1;entryY=0.5;entryDx=0;entryDy=0;" parent="OX5kSm0OX-Nh6_DM0Z43-1" source="Gl2oBqohSsj6hxCs2OFg-25" target="Gl2oBqohSsj6hxCs2OFg-1" edge="1">
                    &#xa;                    
                    <mxGeometry relative="1" as="geometry">
                        &#xa;                        
                        <Array as="points">
                            &#xa;                            
                            <mxPoint x="250" y="485"/>
                            &#xa;                            
                            <mxPoint x="250" y="319"/>
                            &#xa;                        
                        </Array>
                        &#xa;                    
                    </mxGeometry>
                    &#xa;                
                </mxCell>
                &#xa;                
                <mxCell id="Gl2oBqohSsj6hxCs2OFg-19" value="Snapshop" style="swimlane;fontStyle=0;childLayout=stackLayout;horizontal=1;startSize=26;fillColor=none;horizontalStack=0;resizeParent=1;resizeParentMax=0;resizeLast=0;collapsible=1;marginBottom=0;" parent="OX5kSm0OX-Nh6_DM0Z43-1" vertex="1">
                    &#xa;                    
                    <mxGeometry x="540" y="450" width="140" height="78" as="geometry"/>
                    &#xa;                
                </mxCell>
                &#xa;                
                <mxCell id="Gl2oBqohSsj6hxCs2OFg-20" value="+ _id: ObjectId" style="text;strokeColor=none;fillColor=none;align=left;verticalAlign=top;spacingLeft=4;spacingRight=4;overflow=hidden;rotatable=0;points=[[0,0.5],[1,0.5]];portConstraint=eastwest;" parent="Gl2oBqohSsj6hxCs2OFg-19" vertex="1">
                    &#xa;                    
                    <mxGeometry y="26" width="140" height="26" as="geometry"/>
                    &#xa;                
                </mxCell>
                &#xa;                
                <mxCell id="Gl2oBqohSsj6hxCs2OFg-21" value="+ date: datetime" style="text;strokeColor=none;fillColor=none;align=left;verticalAlign=top;spacingLeft=4;spacingRight=4;overflow=hidden;rotatable=0;points=[[0,0.5],[1,0.5]];portConstraint=eastwest;" parent="Gl2oBqohSsj6hxCs2OFg-19" vertex="1">
                    &#xa;                    
                    <mxGeometry y="52" width="140" height="26" as="geometry"/>
                    &#xa;                
                </mxCell>
                &#xa;                
                <mxCell id="PHA15Wtx1yDgYeauEyLV-0" style="edgeStyle=orthogonalEdgeStyle;rounded=0;orthogonalLoop=1;jettySize=auto;html=1;exitX=1;exitY=0.5;exitDx=0;exitDy=0;entryX=0;entryY=0.5;entryDx=0;entryDy=0;" parent="OX5kSm0OX-Nh6_DM0Z43-1" source="Gl2oBqohSsj6hxCs2OFg-29" target="Gl2oBqohSsj6hxCs2OFg-20" edge="1">
                    &#xa;                    
                    <mxGeometry relative="1" as="geometry"/>
                    &#xa;                
                </mxCell>
                &#xa;                
                <mxCell id="V8VolwRSf5XyQ9FChv2U-0" value="AccountType" style="swimlane;fontStyle=0;childLayout=stackLayout;horizontal=1;startSize=26;fillColor=none;horizontalStack=0;resizeParent=1;resizeParentMax=0;resizeLast=0;collapsible=1;marginBottom=0;" parent="OX5kSm0OX-Nh6_DM0Z43-1" vertex="1">
                    &#xa;                    
                    <mxGeometry x="32.5" y="460" width="175" height="78" as="geometry"/>
                    &#xa;                
                </mxCell>
                &#xa;                
                <mxCell id="V8VolwRSf5XyQ9FChv2U-1" value="+ _id: type" style="text;strokeColor=none;fillColor=none;align=left;verticalAlign=top;spacingLeft=4;spacingRight=4;overflow=hidden;rotatable=0;points=[[0,0.5],[1,0.5]];portConstraint=eastwest;" parent="V8VolwRSf5XyQ9FChv2U-0" vertex="1">
                    &#xa;                    
                    <mxGeometry y="26" width="175" height="26" as="geometry"/>
                    &#xa;                
                </mxCell>
                &#xa;                
                <mxCell id="V8VolwRSf5XyQ9FChv2U-2" value="+ typo: ENUM(deber,haber)" style="text;strokeColor=none;fillColor=none;align=left;verticalAlign=top;spacingLeft=4;spacingRight=4;overflow=hidden;rotatable=0;points=[[0,0.5],[1,0.5]];portConstraint=eastwest;" parent="V8VolwRSf5XyQ9FChv2U-0" vertex="1">
                    &#xa;                    
                    <mxGeometry y="52" width="175" height="26" as="geometry"/>
                    &#xa;                
                </mxCell>
                &#xa;            
            </root>
            &#xa;        
        </mxGraphModel>
        &#xa;    
    </diagram>
    <diagram id="kkQyvq77zHLlBLR7Q2O8" name="Diagrama Monto">
        &#xa;        &#xa;        &#xa;        &#xa;        &#xa;        
        <mxGraphModel dx="866" dy="618" grid="1" gridSize="10" guides="1" tooltips="1" connect="1" arrows="1" fold="1" page="1" pageScale="1" pageWidth="827" pageHeight="1169" math="0" shadow="0">
            &#xa;            &#xa;            &#xa;            &#xa;            &#xa;            
            <root>
                &#xa;                &#xa;                &#xa;                &#xa;                &#xa;                
                <mxCell id="5XbXr9KawmQ2o7wU2w3M-0"/>
                &#xa;                &#xa;                &#xa;                &#xa;                &#xa;                
                <mxCell id="5XbXr9KawmQ2o7wU2w3M-1" parent="5XbXr9KawmQ2o7wU2w3M-0"/>
                &#xa;                &#xa;                &#xa;                &#xa;                &#xa;                
                <mxCell id="5XbXr9KawmQ2o7wU2w3M-26" value="" style="edgeStyle=orthogonalEdgeStyle;rounded=0;orthogonalLoop=1;jettySize=auto;html=1;" edge="1" parent="5XbXr9KawmQ2o7wU2w3M-1" source="5XbXr9KawmQ2o7wU2w3M-2" target="5XbXr9KawmQ2o7wU2w3M-20">
                    &#xa;                    &#xa;                    &#xa;                    &#xa;                    &#xa;                    
                    <mxGeometry relative="1" as="geometry"/>
                    &#xa;                    &#xa;                    &#xa;                &#xa;                &#xa;                
                </mxCell>
                &#xa;                &#xa;                &#xa;                &#xa;                &#xa;                
                <mxCell id="5XbXr9KawmQ2o7wU2w3M-2" value="Usuario ingresa transaccion" style="rounded=1;whiteSpace=wrap;html=1;arcSize=40;fontColor=#000000;fillColor=#ffffc0;strokeColor=#ff0000;" vertex="1" parent="5XbXr9KawmQ2o7wU2w3M-1">
                    &#xa;                    &#xa;                    &#xa;                    &#xa;                    &#xa;                    
                    <mxGeometry x="100" y="70" width="120" height="45" as="geometry"/>
                    &#xa;                    &#xa;                    &#xa;                &#xa;                &#xa;                
                </mxCell>
                &#xa;                &#xa;                &#xa;                &#xa;                &#xa;                
                <mxCell id="5XbXr9KawmQ2o7wU2w3M-4" value="" style="rhombus;whiteSpace=wrap;html=1;fillColor=#ffffc0;strokeColor=#ff0000;" vertex="1" parent="5XbXr9KawmQ2o7wU2w3M-1">
                    &#xa;                    &#xa;                    &#xa;                    &#xa;                    &#xa;                    
                    <mxGeometry x="290" y="250" width="80" height="40" as="geometry"/>
                    &#xa;                    &#xa;                    &#xa;                &#xa;                &#xa;                
                </mxCell>
                &#xa;                &#xa;                &#xa;                &#xa;                &#xa;                
                <mxCell id="5XbXr9KawmQ2o7wU2w3M-5" value="no" style="edgeStyle=orthogonalEdgeStyle;html=1;align=left;verticalAlign=bottom;endArrow=open;endSize=8;strokeColor=#ff0000;entryX=0.5;entryY=0;entryDx=0;entryDy=0;" edge="1" source="5XbXr9KawmQ2o7wU2w3M-4" parent="5XbXr9KawmQ2o7wU2w3M-1" target="5XbXr9KawmQ2o7wU2w3M-13">
                    &#xa;                    &#xa;                    &#xa;                    &#xa;                    &#xa;                    
                    <mxGeometry x="-1" relative="1" as="geometry">
                        &#xa;                        &#xa;                        &#xa;                        &#xa;                        &#xa;                        
                        <mxPoint x="480" y="320" as="targetPoint"/>
                        &#xa;                        &#xa;                        &#xa;                    &#xa;                    &#xa;                    
                    </mxGeometry>
                    &#xa;                    &#xa;                    &#xa;                &#xa;                &#xa;                
                </mxCell>
                &#xa;                &#xa;                &#xa;                &#xa;                &#xa;                
                <mxCell id="5XbXr9KawmQ2o7wU2w3M-6" value="yes" style="edgeStyle=orthogonalEdgeStyle;html=1;align=left;verticalAlign=top;endArrow=open;endSize=8;strokeColor=#ff0000;entryX=0.5;entryY=0;entryDx=0;entryDy=0;" edge="1" source="5XbXr9KawmQ2o7wU2w3M-4" parent="5XbXr9KawmQ2o7wU2w3M-1" target="5XbXr9KawmQ2o7wU2w3M-8">
                    &#xa;                    &#xa;                    &#xa;                    &#xa;                    &#xa;                    
                    <mxGeometry x="-1" relative="1" as="geometry">
                        &#xa;                        &#xa;                        &#xa;                        &#xa;                        &#xa;                        
                        <mxPoint x="330" y="350" as="targetPoint"/>
                        &#xa;                        &#xa;                        &#xa;                    &#xa;                    &#xa;                    
                    </mxGeometry>
                    &#xa;                    &#xa;                    &#xa;                &#xa;                &#xa;                
                </mxCell>
                &#xa;                &#xa;                &#xa;                &#xa;                &#xa;                
                <mxCell id="5XbXr9KawmQ2o7wU2w3M-7" value="es monto bruto" style="text;align=center;fontStyle=1;verticalAlign=middle;spacingLeft=3;spacingRight=3;strokeColor=none;rotatable=0;points=[[0,0.5],[1,0.5]];portConstraint=eastwest;" vertex="1" parent="5XbXr9KawmQ2o7wU2w3M-1">
                    &#xa;                    &#xa;                    &#xa;                    &#xa;                    &#xa;                    
                    <mxGeometry x="240" y="220" width="80" height="26" as="geometry"/>
                    &#xa;                    &#xa;                    &#xa;                &#xa;                &#xa;                
                </mxCell>
                &#xa;                &#xa;                &#xa;                &#xa;                &#xa;                
                <mxCell id="5XbXr9KawmQ2o7wU2w3M-36" style="edgeStyle=orthogonalEdgeStyle;rounded=0;orthogonalLoop=1;jettySize=auto;html=1;entryX=0.5;entryY=0;entryDx=0;entryDy=0;" edge="1" parent="5XbXr9KawmQ2o7wU2w3M-1" source="5XbXr9KawmQ2o7wU2w3M-8" target="5XbXr9KawmQ2o7wU2w3M-33">
                    &#xa;                    &#xa;                    &#xa;                    &#xa;                    &#xa;                    
                    <mxGeometry relative="1" as="geometry">
                        &#xa;                        &#xa;                        &#xa;                        &#xa;                        &#xa;                        
                        <Array as="points">
                            &#xa;                            &#xa;                            &#xa;                            &#xa;                            &#xa;                            
                            <mxPoint x="330" y="450"/>
                            &#xa;                            &#xa;                            &#xa;                            &#xa;                            &#xa;                            
                            <mxPoint x="438" y="450"/>
                            &#xa;                            &#xa;                            &#xa;                            &#xa;                            &#xa;                            
                            <mxPoint x="438" y="515"/>
                            &#xa;                            &#xa;                            &#xa;                        &#xa;                        &#xa;                        
                        </Array>
                        &#xa;                        &#xa;                        &#xa;                    &#xa;                    &#xa;                    
                    </mxGeometry>
                    &#xa;                    &#xa;                    &#xa;                &#xa;                &#xa;                
                </mxCell>
                &#xa;                &#xa;                &#xa;                &#xa;                &#xa;                
                <mxCell id="5XbXr9KawmQ2o7wU2w3M-8" value="iva = monto * 1.13&lt;br&gt;monto = monto" style="html=1;" vertex="1" parent="5XbXr9KawmQ2o7wU2w3M-1">
                    &#xa;                    &#xa;                    &#xa;                    &#xa;                    &#xa;                    
                    <mxGeometry x="275" y="350" width="110" height="50" as="geometry"/>
                    &#xa;                    &#xa;                    &#xa;                &#xa;                &#xa;                
                </mxCell>
                &#xa;                &#xa;                &#xa;                &#xa;                &#xa;                
                <mxCell id="5XbXr9KawmQ2o7wU2w3M-12" value="es monto neto" style="text;align=center;fontStyle=1;verticalAlign=middle;spacingLeft=3;spacingRight=3;strokeColor=none;rotatable=0;points=[[0,0.5],[1,0.5]];portConstraint=eastwest;" vertex="1" parent="5XbXr9KawmQ2o7wU2w3M-1">
                    &#xa;                    &#xa;                    &#xa;                    &#xa;                    &#xa;                    
                    <mxGeometry x="490" y="280" width="80" height="26" as="geometry"/>
                    &#xa;                    &#xa;                    &#xa;                &#xa;                &#xa;                
                </mxCell>
                &#xa;                &#xa;                &#xa;                &#xa;                &#xa;                
                <mxCell id="5XbXr9KawmQ2o7wU2w3M-37" style="edgeStyle=orthogonalEdgeStyle;rounded=0;orthogonalLoop=1;jettySize=auto;html=1;entryX=0.5;entryY=0;entryDx=0;entryDy=0;" edge="1" parent="5XbXr9KawmQ2o7wU2w3M-1" source="5XbXr9KawmQ2o7wU2w3M-13" target="5XbXr9KawmQ2o7wU2w3M-33">
                    &#xa;                    &#xa;                    &#xa;                    &#xa;                    &#xa;                    
                    <mxGeometry relative="1" as="geometry">
                        &#xa;                        &#xa;                        &#xa;                        &#xa;                        &#xa;                        
                        <Array as="points">
                            &#xa;                            &#xa;                            &#xa;                            &#xa;                            &#xa;                            
                            <mxPoint x="480" y="450"/>
                            &#xa;                            &#xa;                            &#xa;                            &#xa;                            &#xa;                            
                            <mxPoint x="438" y="450"/>
                            &#xa;                            &#xa;                            &#xa;                            &#xa;                            &#xa;                            
                            <mxPoint x="438" y="515"/>
                            &#xa;                            &#xa;                            &#xa;                        &#xa;                        &#xa;                        
                        </Array>
                        &#xa;                        &#xa;                        &#xa;                    &#xa;                    &#xa;                    
                    </mxGeometry>
                    &#xa;                    &#xa;                    &#xa;                &#xa;                &#xa;                
                </mxCell>
                &#xa;                &#xa;                &#xa;                &#xa;                &#xa;                
                <mxCell id="5XbXr9KawmQ2o7wU2w3M-13" value="auxMonto = monto&lt;br&gt;monto = monto / 1.13&lt;br&gt;iva = auxMonto - monto" style="html=1;" vertex="1" parent="5XbXr9KawmQ2o7wU2w3M-1">
                    &#xa;                    &#xa;                    &#xa;                    &#xa;                    &#xa;                    
                    <mxGeometry x="397.5" y="350" width="165" height="50" as="geometry"/>
                    &#xa;                    &#xa;                    &#xa;                &#xa;                &#xa;                
                </mxCell>
                &#xa;                &#xa;                &#xa;                &#xa;                &#xa;                
                <mxCell id="5XbXr9KawmQ2o7wU2w3M-46" value="Text" style="text;html=1;align=center;verticalAlign=middle;resizable=0;points=[];autosize=1;" vertex="1" parent="5XbXr9KawmQ2o7wU2w3M-13">
                    &#xa;                    &#xa;                    &#xa;                    &#xa;                    &#xa;                    
                    <mxGeometry x="99.5" y="22" width="40" height="20" as="geometry"/>
                    &#xa;                    &#xa;                    &#xa;                &#xa;                &#xa;                
                </mxCell>
                &#xa;                &#xa;                &#xa;                &#xa;                &#xa;                
                <mxCell id="5XbXr9KawmQ2o7wU2w3M-20" value="Condition" style="rhombus;whiteSpace=wrap;html=1;fillColor=#ffffc0;strokeColor=#ff0000;" vertex="1" parent="5XbXr9KawmQ2o7wU2w3M-1">
                    &#xa;                    &#xa;                    &#xa;                    &#xa;                    &#xa;                    
                    <mxGeometry x="120" y="180" width="80" height="40" as="geometry"/>
                    &#xa;                    &#xa;                    &#xa;                &#xa;                &#xa;                
                </mxCell>
                &#xa;                &#xa;                &#xa;                &#xa;                &#xa;                
                <mxCell id="5XbXr9KawmQ2o7wU2w3M-21" value="no" style="edgeStyle=orthogonalEdgeStyle;html=1;align=left;verticalAlign=bottom;endArrow=open;endSize=8;strokeColor=#ff0000;entryX=0.5;entryY=0;entryDx=0;entryDy=0;" edge="1" source="5XbXr9KawmQ2o7wU2w3M-20" parent="5XbXr9KawmQ2o7wU2w3M-1" target="5XbXr9KawmQ2o7wU2w3M-4">
                    &#xa;                    &#xa;                    &#xa;                    &#xa;                    &#xa;                    
                    <mxGeometry x="-1" relative="1" as="geometry">
                        &#xa;                        &#xa;                        &#xa;                        &#xa;                        &#xa;                        
                        <mxPoint x="300" y="200" as="targetPoint"/>
                        &#xa;                        &#xa;                        &#xa;                    &#xa;                    &#xa;                    
                    </mxGeometry>
                    &#xa;                    &#xa;                    &#xa;                &#xa;                &#xa;                
                </mxCell>
                &#xa;                &#xa;                &#xa;                &#xa;                &#xa;                
                <mxCell id="5XbXr9KawmQ2o7wU2w3M-22" value="yes" style="edgeStyle=orthogonalEdgeStyle;html=1;align=left;verticalAlign=top;endArrow=open;endSize=8;strokeColor=#ff0000;" edge="1" source="5XbXr9KawmQ2o7wU2w3M-20" parent="5XbXr9KawmQ2o7wU2w3M-1" target="5XbXr9KawmQ2o7wU2w3M-47">
                    &#xa;                    &#xa;                    &#xa;                    &#xa;                    &#xa;                    
                    <mxGeometry x="-1" relative="1" as="geometry">
                        &#xa;                        &#xa;                        &#xa;                        &#xa;                        &#xa;                        
                        <mxPoint x="160" y="280" as="targetPoint"/>
                        &#xa;                        &#xa;                        &#xa;                        &#xa;                        &#xa;                        
                        <Array as="points">
                            &#xa;                            &#xa;                            &#xa;                            &#xa;                            &#xa;                            
                            <mxPoint x="160" y="710"/>
                            &#xa;                            &#xa;                            &#xa;                            &#xa;                            &#xa;                            
                            <mxPoint x="390" y="710"/>
                            &#xa;                            &#xa;                            &#xa;                        &#xa;                        &#xa;                        
                        </Array>
                        &#xa;                        &#xa;                        &#xa;                    &#xa;                    &#xa;                    
                    </mxGeometry>
                    &#xa;                    &#xa;                    &#xa;                &#xa;                &#xa;                
                </mxCell>
                &#xa;                &#xa;                &#xa;                &#xa;                &#xa;                
                <mxCell id="5XbXr9KawmQ2o7wU2w3M-27" value="es monto excento" style="text;align=center;fontStyle=1;verticalAlign=middle;spacingLeft=3;spacingRight=3;strokeColor=none;rotatable=0;points=[[0,0.5],[1,0.5]];portConstraint=eastwest;" vertex="1" parent="5XbXr9KawmQ2o7wU2w3M-1">
                    &#xa;                    &#xa;                    &#xa;                    &#xa;                    &#xa;                    
                    <mxGeometry x="50" y="140" width="100" height="26" as="geometry"/>
                    &#xa;                    &#xa;                    &#xa;                &#xa;                &#xa;                
                </mxCell>
                &#xa;                &#xa;                &#xa;                &#xa;                &#xa;                
                <mxCell id="5XbXr9KawmQ2o7wU2w3M-28" value="" style="ellipse;html=1;shape=endState;fillColor=#000000;strokeColor=#ff0000;" vertex="1" parent="5XbXr9KawmQ2o7wU2w3M-1">
                    &#xa;                    &#xa;                    &#xa;                    &#xa;                    &#xa;                    
                    <mxGeometry x="375" y="880" width="30" height="30" as="geometry"/>
                    &#xa;                    &#xa;                    &#xa;                &#xa;                &#xa;                
                </mxCell>
                &#xa;                &#xa;                &#xa;                &#xa;                &#xa;                
                <mxCell id="5XbXr9KawmQ2o7wU2w3M-29" value="" style="ellipse;html=1;shape=startState;fillColor=#000000;strokeColor=#ff0000;" vertex="1" parent="5XbXr9KawmQ2o7wU2w3M-1">
                    &#xa;                    &#xa;                    &#xa;                    &#xa;                    &#xa;                    
                    <mxGeometry x="145" width="30" height="30" as="geometry"/>
                    &#xa;                    &#xa;                    &#xa;                &#xa;                &#xa;                
                </mxCell>
                &#xa;                &#xa;                &#xa;                &#xa;                &#xa;                
                <mxCell id="5XbXr9KawmQ2o7wU2w3M-30" value="" style="edgeStyle=orthogonalEdgeStyle;html=1;verticalAlign=bottom;endArrow=open;endSize=8;strokeColor=#ff0000;entryX=0.5;entryY=0;entryDx=0;entryDy=0;" edge="1" source="5XbXr9KawmQ2o7wU2w3M-29" parent="5XbXr9KawmQ2o7wU2w3M-1" target="5XbXr9KawmQ2o7wU2w3M-2">
                    &#xa;                    &#xa;                    &#xa;                    &#xa;                    &#xa;                    
                    <mxGeometry relative="1" as="geometry">
                        &#xa;                        &#xa;                        &#xa;                        &#xa;                        &#xa;                        
                        <mxPoint x="155" y="60" as="targetPoint"/>
                        &#xa;                        &#xa;                        &#xa;                    &#xa;                    &#xa;                    
                    </mxGeometry>
                    &#xa;                    &#xa;                    &#xa;                &#xa;                &#xa;                
                </mxCell>
                &#xa;                &#xa;                &#xa;                &#xa;                &#xa;                
                <mxCell id="5XbXr9KawmQ2o7wU2w3M-33" value="Condition" style="rhombus;whiteSpace=wrap;html=1;fillColor=#ffffc0;strokeColor=#ff0000;" vertex="1" parent="5XbXr9KawmQ2o7wU2w3M-1">
                    &#xa;                    &#xa;                    &#xa;                    &#xa;                    &#xa;                    
                    <mxGeometry x="402.5" y="515" width="80" height="40" as="geometry"/>
                    &#xa;                    &#xa;                    &#xa;                &#xa;                &#xa;                
                </mxCell>
                &#xa;                &#xa;                &#xa;                &#xa;                &#xa;                
                <mxCell id="5XbXr9KawmQ2o7wU2w3M-34" value="no" style="edgeStyle=orthogonalEdgeStyle;html=1;align=left;verticalAlign=bottom;endArrow=open;endSize=8;strokeColor=#ff0000;entryX=0.5;entryY=0;entryDx=0;entryDy=0;" edge="1" source="5XbXr9KawmQ2o7wU2w3M-33" parent="5XbXr9KawmQ2o7wU2w3M-1" target="5XbXr9KawmQ2o7wU2w3M-44">
                    &#xa;                    &#xa;                    &#xa;                    &#xa;                    &#xa;                    
                    <mxGeometry x="-1" relative="1" as="geometry">
                        &#xa;                        &#xa;                        &#xa;                        &#xa;                        &#xa;                        
                        <mxPoint x="582.5" y="535" as="targetPoint"/>
                        &#xa;                        &#xa;                        &#xa;                    &#xa;                    &#xa;                    
                    </mxGeometry>
                    &#xa;                    &#xa;                    &#xa;                &#xa;                &#xa;                
                </mxCell>
                &#xa;                &#xa;                &#xa;                &#xa;                &#xa;                
                <mxCell id="5XbXr9KawmQ2o7wU2w3M-35" value="yes" style="edgeStyle=orthogonalEdgeStyle;html=1;align=left;verticalAlign=top;endArrow=open;endSize=8;strokeColor=#ff0000;entryX=0.5;entryY=0;entryDx=0;entryDy=0;" edge="1" source="5XbXr9KawmQ2o7wU2w3M-33" parent="5XbXr9KawmQ2o7wU2w3M-1" target="5XbXr9KawmQ2o7wU2w3M-39">
                    &#xa;                    &#xa;                    &#xa;                    &#xa;                    &#xa;                    
                    <mxGeometry x="-1" relative="1" as="geometry">
                        &#xa;                        &#xa;                        &#xa;                        &#xa;                        &#xa;                        
                        <mxPoint x="442.5" y="615" as="targetPoint"/>
                        &#xa;                        &#xa;                        &#xa;                    &#xa;                    &#xa;                    
                    </mxGeometry>
                    &#xa;                    &#xa;                    &#xa;                &#xa;                &#xa;                
                </mxCell>
                &#xa;                &#xa;                &#xa;                &#xa;                &#xa;                
                <mxCell id="5XbXr9KawmQ2o7wU2w3M-38" value="es transaccion de haber" style="text;align=center;fontStyle=1;verticalAlign=middle;spacingLeft=3;spacingRight=3;strokeColor=none;rotatable=0;points=[[0,0.5],[1,0.5]];portConstraint=eastwest;" vertex="1" parent="5XbXr9KawmQ2o7wU2w3M-1">
                    &#xa;                    &#xa;                    &#xa;                    &#xa;                    &#xa;                    
                    <mxGeometry x="450" y="480" width="150" height="26" as="geometry"/>
                    &#xa;                    &#xa;                    &#xa;                &#xa;                &#xa;                
                </mxCell>
                &#xa;                &#xa;                &#xa;                &#xa;                &#xa;                
                <mxCell id="5XbXr9KawmQ2o7wU2w3M-39" value="Aplicar Debito Fiscal Iva" style="rounded=1;whiteSpace=wrap;html=1;arcSize=40;fontColor=#000000;fillColor=#ffffc0;strokeColor=#ff0000;" vertex="1" parent="5XbXr9KawmQ2o7wU2w3M-1">
                    &#xa;                    &#xa;                    &#xa;                    &#xa;                    &#xa;                    
                    <mxGeometry x="382.5" y="600" width="120" height="41" as="geometry"/>
                    &#xa;                    &#xa;                    &#xa;                &#xa;                &#xa;                
                </mxCell>
                &#xa;                &#xa;                &#xa;                &#xa;                &#xa;                
                <mxCell id="5XbXr9KawmQ2o7wU2w3M-41" value="Text" style="text;html=1;align=center;verticalAlign=middle;resizable=0;points=[];autosize=1;" vertex="1" parent="5XbXr9KawmQ2o7wU2w3M-39">
                    &#xa;                    &#xa;                    &#xa;                    &#xa;                    &#xa;                    
                    <mxGeometry x="70.5" y="21" width="40" height="20" as="geometry"/>
                    &#xa;                    &#xa;                    &#xa;                &#xa;                &#xa;                
                </mxCell>
                &#xa;                &#xa;                &#xa;                &#xa;                &#xa;                
                <mxCell id="5XbXr9KawmQ2o7wU2w3M-40" value="" style="edgeStyle=orthogonalEdgeStyle;html=1;verticalAlign=bottom;endArrow=open;endSize=8;strokeColor=#ff0000;entryX=0.5;entryY=0;entryDx=0;entryDy=0;" edge="1" source="5XbXr9KawmQ2o7wU2w3M-39" parent="5XbXr9KawmQ2o7wU2w3M-1" target="5XbXr9KawmQ2o7wU2w3M-47">
                    &#xa;                    &#xa;                    &#xa;                    &#xa;                    &#xa;                    
                    <mxGeometry relative="1" as="geometry">
                        &#xa;                        &#xa;                        &#xa;                        &#xa;                        &#xa;                        
                        <mxPoint x="442.5" y="720" as="targetPoint"/>
                        &#xa;                        &#xa;                        &#xa;                    &#xa;                    &#xa;                    
                    </mxGeometry>
                    &#xa;                    &#xa;                    &#xa;                &#xa;                &#xa;                
                </mxCell>
                &#xa;                &#xa;                &#xa;                &#xa;                &#xa;                
                <mxCell id="5XbXr9KawmQ2o7wU2w3M-44" value="Aplicar Credito Fiscal Iva" style="rounded=1;whiteSpace=wrap;html=1;arcSize=40;fontColor=#000000;fillColor=#ffffc0;strokeColor=#ff0000;" vertex="1" parent="5XbXr9KawmQ2o7wU2w3M-1">
                    &#xa;                    &#xa;                    &#xa;                    &#xa;                    &#xa;                    
                    <mxGeometry x="545" y="600" width="120" height="40" as="geometry"/>
                    &#xa;                    &#xa;                    &#xa;                &#xa;                &#xa;                
                </mxCell>
                &#xa;                &#xa;                &#xa;                &#xa;                &#xa;                
                <mxCell id="5XbXr9KawmQ2o7wU2w3M-45" value="" style="edgeStyle=orthogonalEdgeStyle;html=1;verticalAlign=bottom;endArrow=open;endSize=8;strokeColor=#ff0000;" edge="1" source="5XbXr9KawmQ2o7wU2w3M-44" parent="5XbXr9KawmQ2o7wU2w3M-1">
                    &#xa;                    &#xa;                    &#xa;                    &#xa;                    &#xa;                    
                    <mxGeometry relative="1" as="geometry">
                        &#xa;                        &#xa;                        &#xa;                        &#xa;                        &#xa;                        
                        <mxPoint x="390" y="790" as="targetPoint"/>
                        &#xa;                        &#xa;                        &#xa;                        &#xa;                        &#xa;                        
                        <Array as="points">
                            &#xa;                            &#xa;                            &#xa;                            &#xa;                            &#xa;                            
                            <mxPoint x="605" y="720"/>
                            &#xa;                            &#xa;                            &#xa;                            &#xa;                            &#xa;                            
                            <mxPoint x="390" y="720"/>
                            &#xa;                            &#xa;                            &#xa;                        &#xa;                        &#xa;                        
                        </Array>
                        &#xa;                        &#xa;                        &#xa;                    &#xa;                    &#xa;                    
                    </mxGeometry>
                    &#xa;                    &#xa;                    &#xa;                &#xa;                &#xa;                
                </mxCell>
                &#xa;                &#xa;                &#xa;                &#xa;                &#xa;                
                <mxCell id="5XbXr9KawmQ2o7wU2w3M-47" value="Realizar tranzaccion monto" style="rounded=1;whiteSpace=wrap;html=1;arcSize=40;fontColor=#000000;fillColor=#ffffc0;strokeColor=#ff0000;" vertex="1" parent="5XbXr9KawmQ2o7wU2w3M-1">
                    &#xa;                    &#xa;                    &#xa;                    &#xa;                    &#xa;                    
                    <mxGeometry x="330" y="790" width="120" height="40" as="geometry"/>
                    &#xa;                    &#xa;                    &#xa;                &#xa;                &#xa;                
                </mxCell>
                &#xa;                &#xa;                &#xa;                &#xa;                &#xa;                
                <mxCell id="5XbXr9KawmQ2o7wU2w3M-48" value="" style="edgeStyle=orthogonalEdgeStyle;html=1;verticalAlign=bottom;endArrow=open;endSize=8;strokeColor=#ff0000;entryX=0.5;entryY=0;entryDx=0;entryDy=0;" edge="1" source="5XbXr9KawmQ2o7wU2w3M-47" parent="5XbXr9KawmQ2o7wU2w3M-1" target="5XbXr9KawmQ2o7wU2w3M-28">
                    &#xa;                    &#xa;                    &#xa;                    &#xa;                    &#xa;                    
                    <mxGeometry relative="1" as="geometry">
                        &#xa;                        &#xa;                        &#xa;                        &#xa;                        &#xa;                        
                        <mxPoint x="399" y="890" as="targetPoint"/>
                        &#xa;                        &#xa;                        &#xa;                    &#xa;                    &#xa;                    
                    </mxGeometry>
                    &#xa;                    &#xa;                    &#xa;                &#xa;                &#xa;                
                </mxCell>
                &#xa;                &#xa;                &#xa;            &#xa;            &#xa;            
            </root>
            &#xa;            &#xa;            &#xa;        &#xa;        &#xa;        
        </mxGraphModel>
        &#xa;        &#xa;        &#xa;    &#xa;    &#xa;    
    </diagram>
    <diagram id="KVLaVxRSk424_k08jDyS" name="Screenshot">
        <mxGraphModel dx="1296" dy="475" grid="1" gridSize="10" guides="1" tooltips="1" connect="1" arrows="1" fold="1" page="1" pageScale="1" pageWidth="827" pageHeight="1169" math="0" shadow="0">
            <root>
                <mxCell id="XrtxEAxTZtmlp4uzNpgT-0"/>
                <mxCell id="XrtxEAxTZtmlp4uzNpgT-1" parent="XrtxEAxTZtmlp4uzNpgT-0"/>
                <mxCell id="XrtxEAxTZtmlp4uzNpgT-12" value="" style="edgeStyle=orthogonalEdgeStyle;rounded=0;orthogonalLoop=1;jettySize=auto;html=1;" parent="XrtxEAxTZtmlp4uzNpgT-1" source="XrtxEAxTZtmlp4uzNpgT-2" target="XrtxEAxTZtmlp4uzNpgT-10" edge="1">
                    <mxGeometry relative="1" as="geometry"/>
                </mxCell>
                <mxCell id="XrtxEAxTZtmlp4uzNpgT-2" value="" style="ellipse;html=1;shape=startState;fillColor=#000000;strokeColor=#ff0000;" parent="XrtxEAxTZtmlp4uzNpgT-1" vertex="1">
                    <mxGeometry x="135" y="10" width="30" height="30" as="geometry"/>
                </mxCell>
                <mxCell id="XrtxEAxTZtmlp4uzNpgT-6" value="" style="rhombus;whiteSpace=wrap;html=1;fillColor=#ffffc0;strokeColor=#ff0000;" parent="XrtxEAxTZtmlp4uzNpgT-1" vertex="1">
                    <mxGeometry x="110" y="200" width="80" height="40" as="geometry"/>
                </mxCell>
                <mxCell id="XrtxEAxTZtmlp4uzNpgT-7" value="no" style="edgeStyle=orthogonalEdgeStyle;html=1;align=left;verticalAlign=bottom;endArrow=open;endSize=8;strokeColor=#ff0000;entryX=0.5;entryY=0;entryDx=0;entryDy=0;" parent="XrtxEAxTZtmlp4uzNpgT-1" source="XrtxEAxTZtmlp4uzNpgT-6" target="XrtxEAxTZtmlp4uzNpgT-17" edge="1">
                    <mxGeometry x="-1" relative="1" as="geometry">
                        <mxPoint x="290" y="220" as="targetPoint"/>
                    </mxGeometry>
                </mxCell>
                <mxCell id="XrtxEAxTZtmlp4uzNpgT-8" value="yes" style="edgeStyle=orthogonalEdgeStyle;html=1;align=left;verticalAlign=top;endArrow=open;endSize=8;strokeColor=#ff0000;entryX=0.5;entryY=0;entryDx=0;entryDy=0;" parent="XrtxEAxTZtmlp4uzNpgT-1" source="XrtxEAxTZtmlp4uzNpgT-6" target="XrtxEAxTZtmlp4uzNpgT-21" edge="1">
                    <mxGeometry x="-1" relative="1" as="geometry">
                        <mxPoint x="150" y="320" as="targetPoint"/>
                    </mxGeometry>
                </mxCell>
                <mxCell id="XrtxEAxTZtmlp4uzNpgT-10" value="Extraer ultimo escreenshot" style="rounded=1;whiteSpace=wrap;html=1;arcSize=40;fontColor=#000000;fillColor=#ffffc0;strokeColor=#ff0000;" parent="XrtxEAxTZtmlp4uzNpgT-1" vertex="1">
                    <mxGeometry x="90" y="100" width="120" height="40" as="geometry"/>
                </mxCell>
                <mxCell id="XrtxEAxTZtmlp4uzNpgT-11" value="" style="edgeStyle=orthogonalEdgeStyle;html=1;verticalAlign=bottom;endArrow=open;endSize=8;strokeColor=#ff0000;" parent="XrtxEAxTZtmlp4uzNpgT-1" source="XrtxEAxTZtmlp4uzNpgT-10" edge="1">
                    <mxGeometry relative="1" as="geometry">
                        <mxPoint x="150" y="200" as="targetPoint"/>
                    </mxGeometry>
                </mxCell>
                <mxCell id="XrtxEAxTZtmlp4uzNpgT-13" value="Existe" style="text;align=center;fontStyle=1;verticalAlign=middle;spacingLeft=3;spacingRight=3;strokeColor=none;rotatable=0;points=[[0,0.5],[1,0.5]];portConstraint=eastwest;" parent="XrtxEAxTZtmlp4uzNpgT-1" vertex="1">
                    <mxGeometry x="70" y="180" width="80" height="26" as="geometry"/>
                </mxCell>
                <mxCell id="XrtxEAxTZtmlp4uzNpgT-17" value="Colocar cuentas en 0" style="rounded=1;whiteSpace=wrap;html=1;arcSize=40;fontColor=#000000;fillColor=#ffffc0;strokeColor=#ff0000;" parent="XrtxEAxTZtmlp4uzNpgT-1" vertex="1">
                    <mxGeometry x="345" y="290" width="120" height="40" as="geometry"/>
                </mxCell>
                <mxCell id="XrtxEAxTZtmlp4uzNpgT-18" value="" style="edgeStyle=orthogonalEdgeStyle;html=1;verticalAlign=bottom;endArrow=open;endSize=8;strokeColor=#ff0000;entryX=0.5;entryY=0;entryDx=0;entryDy=0;" parent="XrtxEAxTZtmlp4uzNpgT-1" source="XrtxEAxTZtmlp4uzNpgT-17" target="XrtxEAxTZtmlp4uzNpgT-24" edge="1">
                    <mxGeometry relative="1" as="geometry">
                        <mxPoint x="405" y="390" as="targetPoint"/>
                    </mxGeometry>
                </mxCell>
                <mxCell id="XrtxEAxTZtmlp4uzNpgT-23" value="" style="edgeStyle=orthogonalEdgeStyle;rounded=0;orthogonalLoop=1;jettySize=auto;html=1;" parent="XrtxEAxTZtmlp4uzNpgT-1" source="XrtxEAxTZtmlp4uzNpgT-21" target="XrtxEAxTZtmlp4uzNpgT-22" edge="1">
                    <mxGeometry relative="1" as="geometry"/>
                </mxCell>
                <mxCell id="XrtxEAxTZtmlp4uzNpgT-21" value="Colocar cuentas, y fecha base segun screenshoot" style="rounded=1;whiteSpace=wrap;html=1;arcSize=40;fontColor=#000000;fillColor=#ffffc0;strokeColor=#ff0000;" parent="XrtxEAxTZtmlp4uzNpgT-1" vertex="1">
                    <mxGeometry x="85" y="300" width="130" height="60" as="geometry"/>
                </mxCell>
                <mxCell id="XrtxEAxTZtmlp4uzNpgT-29" style="edgeStyle=orthogonalEdgeStyle;rounded=0;orthogonalLoop=1;jettySize=auto;html=1;exitX=0.5;exitY=1;exitDx=0;exitDy=0;entryX=0.5;entryY=0;entryDx=0;entryDy=0;" parent="XrtxEAxTZtmlp4uzNpgT-1" source="XrtxEAxTZtmlp4uzNpgT-22" target="XrtxEAxTZtmlp4uzNpgT-27" edge="1">
                    <mxGeometry relative="1" as="geometry">
                        <Array as="points">
                            <mxPoint x="150" y="500"/>
                            <mxPoint x="280" y="500"/>
                        </Array>
                    </mxGeometry>
                </mxCell>
                <mxCell id="XrtxEAxTZtmlp4uzNpgT-22" value="Extraer asientos con transacciones desde fecha base" style="rounded=1;whiteSpace=wrap;html=1;arcSize=40;fontColor=#000000;fillColor=#ffffc0;strokeColor=#ff0000;" parent="XrtxEAxTZtmlp4uzNpgT-1" vertex="1">
                    <mxGeometry x="85" y="400" width="130" height="60" as="geometry"/>
                </mxCell>
                <mxCell id="XrtxEAxTZtmlp4uzNpgT-25" value="Text" style="text;html=1;align=center;verticalAlign=middle;resizable=0;points=[];autosize=1;" parent="XrtxEAxTZtmlp4uzNpgT-22" vertex="1">
                    <mxGeometry x="75" y="27" width="40" height="20" as="geometry"/>
                </mxCell>
                <mxCell id="XrtxEAxTZtmlp4uzNpgT-30" style="edgeStyle=orthogonalEdgeStyle;rounded=0;orthogonalLoop=1;jettySize=auto;html=1;exitX=0.5;exitY=1;exitDx=0;exitDy=0;entryX=0.5;entryY=0;entryDx=0;entryDy=0;" parent="XrtxEAxTZtmlp4uzNpgT-1" source="XrtxEAxTZtmlp4uzNpgT-24" target="XrtxEAxTZtmlp4uzNpgT-27" edge="1">
                    <mxGeometry relative="1" as="geometry">
                        <Array as="points">
                            <mxPoint x="405" y="500"/>
                            <mxPoint x="280" y="500"/>
                        </Array>
                    </mxGeometry>
                </mxCell>
                <mxCell id="XrtxEAxTZtmlp4uzNpgT-24" value="Extraer todos los asientos" style="rounded=1;whiteSpace=wrap;html=1;arcSize=40;fontColor=#000000;fillColor=#ffffc0;strokeColor=#ff0000;" parent="XrtxEAxTZtmlp4uzNpgT-1" vertex="1">
                    <mxGeometry x="340" y="390" width="130" height="60" as="geometry"/>
                </mxCell>
                <mxCell id="XrtxEAxTZtmlp4uzNpgT-27" value="Sumar haber, y deber de las cuentas" style="rounded=1;whiteSpace=wrap;html=1;arcSize=40;fontColor=#000000;fillColor=#ffffc0;strokeColor=#ff0000;" parent="XrtxEAxTZtmlp4uzNpgT-1" vertex="1">
                    <mxGeometry x="220" y="535" width="120" height="40" as="geometry"/>
                </mxCell>
                <mxCell id="XrtxEAxTZtmlp4uzNpgT-28" value="" style="edgeStyle=orthogonalEdgeStyle;html=1;verticalAlign=bottom;endArrow=open;endSize=8;strokeColor=#ff0000;" parent="XrtxEAxTZtmlp4uzNpgT-1" source="XrtxEAxTZtmlp4uzNpgT-27" edge="1">
                    <mxGeometry relative="1" as="geometry">
                        <mxPoint x="280" y="635" as="targetPoint"/>
                    </mxGeometry>
                </mxCell>
            </root>
        </mxGraphModel>
    </diagram>
    <diagram id="37CUf8EYDP512UkCiGpl" name="AnidarCuentas">
        <mxGraphModel dx="1296" dy="475" grid="1" gridSize="10" guides="1" tooltips="1" connect="1" arrows="1" fold="1" page="1" pageScale="1" pageWidth="827" pageHeight="1169" math="0" shadow="0">
            <root>
                <mxCell id="QYzo-vAzBvZeRHCDOqrN-0"/>
                <mxCell id="QYzo-vAzBvZeRHCDOqrN-1" parent="QYzo-vAzBvZeRHCDOqrN-0"/>
            </root>
        </mxGraphModel>
    </diagram>
</mxfile>